<?xml version="1.0" encoding="iso-8859-1"?>
<!-- Generator: Adobe Illustrator 19.0.0, SVG Export Plug-In . SVG Version: 6.00 Build 0)  -->
<svg version="1.1" id="Capa_1" xmlns="http://www.w3.org/2000/svg" xmlns:xlink="http://www.w3.org/1999/xlink" x="0px" y="0px"
	 viewBox="0 0 512 512" style="enable-background:new 0 0 512 512;" xml:space="preserve">
<path style="fill:#6A80FF;" d="M358.034,501.999h126.885c9.433,0,17.081-12.536,17.081-28v-328c0-15.464-7.647-28-17.081-28H358.034
	c-9.433,0-17.081,12.536-17.081,28v328C340.953,489.463,348.6,501.999,358.034,501.999z"/>
<rect x="339.37" y="187" style="fill:#EDF2FA;" width="162.63" height="257"/>
<path style="fill:#4DBAF6;" d="M108.802,394H254.4c10.825,0,19.6-12.536,19.6-28V38c0-15.464-8.775-28-19.6-28H108.802
	c-10.825,0-19.6,12.536-19.6,28v328C89.202,381.464,97.977,394,108.802,394z"/>
<rect x="89.2" y="79" style="fill:#EDF2FA;" width="184.8" height="257"/>
<path style="fill:#FFFFFF;" d="M83.654,267.488v-52.039c0-35.512,11.457-58.207,34.351-68.108v-5.583
	c-39.903,2.244-59.851,26.81-59.851,73.692v52.039c0,3.178,2.576,5.754,5.754,5.754h54.103l0,0H89.408
	C86.231,273.242,83.654,270.666,83.654,267.488z"/>
<path style="fill:#FF5D5D;" d="M123.765,267.488v-48.342c0-3.178-2.576-5.754-5.754-5.754h-3.309h-25.5
	c0-26.058,9.599-39.961,28.803-41.709v-24.342c-22.894,9.901-34.351,32.596-34.351,68.108v52.039c0,3.178,2.576,5.754,5.754,5.754
	h28.603C121.189,273.242,123.765,270.666,123.765,267.488z"/>
<path style="fill:#FFFFFF;" d="M184,267.488v-52.039c0-36.478,12.083-59.439,36.24-68.894v-4.798
	c-39.902,2.244-59.851,26.81-59.851,73.692v52.039c0,3.178,2.576,5.754,5.754,5.754h23.611C186.576,273.243,184,270.666,184,267.488
	z"/>
<path style="fill:#FF5D5D;" d="M226,267.488v-48.342c0-3.178-2.576-5.754-5.754-5.754h-5.198h-23.611
	c0-26.058,9.599-39.961,28.803-41.709v-25.128c-24.157,9.454-36.24,32.416-36.24,68.894v52.039c0,3.178,2.576,5.754,5.754,5.754
	h30.491C223.424,273.243,226,270.666,226,267.488z"/>
<g>
	<path style="fill:#FFB954;" d="M456.571,256.332h-48.692l0,0h19.167c2.86,0,5.179,2.319,5.179,5.179v46.835
		c0,0.627-0.017,1.234-0.025,1.852h1.607c0,9.367-1.383,16.983-4.139,22.86c-3.553,15.191-10.822,26.224-21.784,33.127v8.484
		c35.913-2.02,53.866-24.129,53.866-66.322v-46.835C461.75,258.65,459.432,256.332,456.571,256.332z"/>
	<path style="fill:#FFB954;" d="M363.717,256.332h-48.693l0,0h17.693c2.86,0,5.179,2.319,5.179,5.179v46.835
		c0,0.627-0.017,1.234-0.025,1.852h3.082c0,12.07-2.295,21.234-6.872,27.508c-3.68,12.161-10.026,21.339-19.052,27.521v9.441
		c35.912-2.02,53.866-24.129,53.866-66.322V261.51C368.896,258.65,366.577,256.332,363.717,256.332z"/>
</g>
<path d="M110.737,54h62.525c5.522,0,10-4.477,10-10s-4.478-10-10-10h-62.525c-5.522,0-10,4.477-10,10S105.215,54,110.737,54z"/>
<path d="M142,353.75c-2.63,0-5.21,1.07-7.07,2.93s-2.93,4.44-2.93,7.07s1.069,5.21,2.93,7.07s4.44,2.93,7.07,2.93
	s5.21-1.07,7.069-2.93c1.86-1.86,2.931-4.44,2.931-7.07s-1.07-5.21-2.931-7.07C147.21,354.82,144.63,353.75,142,353.75z"/>
<path d="M338.737,162h62.525c5.522,0,10-4.477,10-10s-4.478-10-10-10h-62.525c-5.522,0-10,4.477-10,10S333.215,162,338.737,162z"/>
<path d="M474,108H284V38c0-20.953-17.047-38-38-38H38C17.047,0,0,17.047,0,38v328c0,20.953,17.047,38,38,38h190v70
	c0,20.953,17.047,38,38,38h208c20.953,0,38-17.047,38-38V146C512,125.047,494.953,108,474,108z M474,128c9.925,0,18,8.075,18,18v31
	H284v-49H474z M38,20h208c9.925,0,18,8.075,18,18v288H20V89h168.333c5.522,0,10-4.477,10-10s-4.478-10-10-10H20V38
	C20,28.075,28.075,20,38,20z M20,366v-20h244v20c0,9.925-8.075,18-18,18H38C28.075,384,20,375.925,20,366z M474,492H266
	c-9.925,0-18-8.075-18-18v-70.053c20.027-1.044,36-17.665,36-37.947V197h208v237H325.667c-5.522,0-10,4.477-10,10s4.478,10,10,10
	H492v20C492,483.925,483.925,492,474,492z"/>
<path d="M285.67,434c-2.64,0-5.21,1.07-7.07,2.93c-1.87,1.86-2.93,4.44-2.93,7.07s1.06,5.21,2.93,7.07
	c1.86,1.86,4.431,2.93,7.07,2.93c2.63,0,5.21-1.07,7.07-2.93c1.859-1.86,2.93-4.44,2.93-7.07s-1.07-5.21-2.93-7.07
	C290.88,435.07,288.3,434,285.67,434z"/>
<path d="M370,461.75c-2.63,0-5.21,1.07-7.07,2.93c-1.86,1.86-2.93,4.44-2.93,7.07s1.069,5.21,2.93,7.07s4.44,2.93,7.07,2.93
	s5.21-1.07,7.069-2.93c1.86-1.86,2.931-4.44,2.931-7.07s-1.07-5.21-2.931-7.07C375.21,462.82,372.63,461.75,370,461.75z"/>
<path d="M118.011,203.392H99.814c2.737-20.263,13.94-21.281,19.097-21.75c5.15-0.469,9.094-4.787,9.094-9.959v-29.926
	c0-2.75-1.132-5.378-3.131-7.267c-1.998-1.889-4.687-2.862-7.431-2.717c-31.609,1.778-69.289,17.739-69.289,83.676v52.04
	c0,8.687,7.067,15.754,15.754,15.754h54.103c8.688,0,15.755-7.067,15.755-15.754v-48.342
	C133.766,210.459,126.698,203.392,118.011,203.392z M113.766,263.243H68.154v-47.794c0-46.009,20.46-58.859,39.851-62.487v10.516
	c-13.392,4.075-28.803,16.112-28.803,49.914c0,5.523,4.478,10,10,10h24.563L113.766,263.243L113.766,263.243z"/>
<path d="M220.246,203.392h-18.197c2.737-20.263,13.941-21.281,19.098-21.75c5.15-0.469,9.094-4.787,9.094-9.959v-29.926
	c0-2.75-1.132-5.378-3.13-7.267c-1.999-1.889-4.697-2.862-7.432-2.717c-31.61,1.778-69.29,17.739-69.29,83.676v52.04
	c0,8.687,7.067,15.754,15.754,15.754h54.104c8.687,0,15.754-7.067,15.754-15.754v-48.342
	C236,210.459,228.933,203.392,220.246,203.392z M216,263.243h-45.611v-47.794c0-46.009,20.461-58.859,39.852-62.487v10.516
	c-13.392,4.075-28.804,16.112-28.804,49.914c0,5.523,4.478,10,10,10H216V263.243z"/>
<path d="M229.67,89c2.63,0,5.21-1.07,7.07-2.93c1.859-1.86,2.93-4.44,2.93-7.07s-1.07-5.21-2.93-7.07
	c-1.86-1.86-4.44-2.93-7.07-2.93c-2.64,0-5.21,1.07-7.07,2.93c-1.859,1.86-2.93,4.44-2.93,7.07s1.07,5.21,2.93,7.07
	C224.46,87.93,227.03,89,229.67,89z"/>
<path d="M407.879,320.198h15.237c-2.545,16.34-11.484,17.155-16.139,17.579c-5.15,0.469-9.094,4.787-9.094,9.959v26.933
	c0,2.75,1.132,5.378,3.13,7.267c1.862,1.76,4.322,2.733,6.87,2.733c0.187,0,0.374-0.005,0.562-0.016
	c28.879-1.625,63.305-16.182,63.305-76.307v-46.835c0-8.37-6.81-15.179-15.179-15.179h-48.692c-8.369,0-15.179,6.81-15.179,15.179
	v43.508C392.7,313.388,399.51,320.198,407.879,320.198z M412.7,266.332h39.05v42.015c0,39.702-17.161,51.483-33.866,55.011v-7.495
	c12.207-3.953,25.923-15.18,25.923-45.665c0-5.523-4.478-10-10-10H412.7V266.332z"/>
<path d="M378.896,308.346l0.001-46.835c0-8.37-6.81-15.179-15.18-15.179h-48.692c-8.369,0-15.179,6.809-15.179,15.179v43.508
	c0,8.37,6.81,15.179,15.179,15.179h15.238c-2.545,16.34-11.484,17.155-16.139,17.579c-5.15,0.469-9.094,4.787-9.094,9.959v26.933
	c0,2.75,1.132,5.378,3.13,7.267c1.862,1.76,4.322,2.733,6.87,2.733c0.187,0,0.374-0.005,0.562-0.016
	C344.471,383.028,378.896,368.471,378.896,308.346z M358.896,308.346c0,39.702-17.16,51.483-33.865,55.011v-7.495
	c12.207-3.953,25.923-15.18,25.923-45.665c0-5.523-4.478-10-10-10h-21.107v-33.866h39.051L358.896,308.346z"/>
<g>
</g>
<g>
</g>
<g>
</g>
<g>
</g>
<g>
</g>
<g>
</g>
<g>
</g>
<g>
</g>
<g>
</g>
<g>
</g>
<g>
</g>
<g>
</g>
<g>
</g>
<g>
</g>
<g>
</g>
</svg>
