<?xml version="1.0" encoding="iso-8859-1"?>
<!-- Generator: Adobe Illustrator 19.0.0, SVG Export Plug-In . SVG Version: 6.00 Build 0)  -->
<svg version="1.1" id="Capa_1" xmlns="http://www.w3.org/2000/svg" xmlns:xlink="http://www.w3.org/1999/xlink" x="0px" y="0px"
	 viewBox="0 0 512 512" style="enable-background:new 0 0 512 512;" xml:space="preserve">
<path style="fill:#C9F3FF;" d="M447.89,68.51H249.127c-91.47,0-165.62,74.15-165.62,165.62v80.51
	c0,24.761,5.443,48.249,15.184,69.344c17.03,7.091,35.708,11.012,55.306,11.012h62.004v79.998l79.998-79.998h62.004
	c79.527,0,143.996-64.469,143.996-143.996v-69.998C502,135.479,480.87,94.898,447.89,68.51z"/>
<path style="fill:#FFFFFF;" d="M193.341,169.735c0-24.746,9.124-47.291,24.083-64.238c-4.668-0.968-9.491-1.492-14.435-1.492
	c-40.306,0-72.98,33.762-72.98,75.41c0,58.339,125.997,148.584,125.997,148.584s13.052-9.352,30.745-23.967
	C242.91,264.582,193.341,210.883,193.341,169.735z"/>
<path style="fill:#FF5D5D;" d="M382.003,179.414c0-41.648-32.674-75.41-72.98-75.41c-20.882,0-39.714,9.064-53.017,23.59
	c-10.154-11.087-23.533-18.977-38.582-22.097c-14.96,16.949-24.083,39.492-24.083,64.238c0,41.148,49.569,94.847,93.41,134.296
	C324.05,273.22,382.003,218.982,382.003,179.414z"/>
<path d="M215.999,484.994c-1.288,0-2.587-0.249-3.824-0.761c-3.737-1.548-6.173-5.194-6.173-9.239v-69.998h-52.006
	C69.082,404.996,0,335.914,0,251v-69.998C0,96.088,69.082,27.006,153.996,27.006h204.008C442.918,27.006,512,96.088,512,181.002V251
	c0,26.499-6.845,52.635-19.794,75.58c-2.714,4.809-8.813,6.51-13.624,3.794c-4.81-2.715-6.509-8.814-3.794-13.624
	c11.26-19.952,17.212-42.688,17.212-65.75v-69.998c0-73.886-60.11-133.997-133.997-133.997H153.996
	c-73.886,0-133.997,60.11-133.997,133.997V251c0,73.886,60.11,133.997,133.997,133.997h62.005c5.523,0,10,4.478,10,10v55.856
	l62.927-62.927c1.875-1.875,4.418-2.929,7.071-2.929h62.004c20.257,0,39.716-4.403,57.835-13.087
	c4.979-2.387,10.952-0.285,13.339,4.695s0.285,10.953-4.696,13.34c-20.837,9.987-43.205,15.052-66.477,15.052h-57.863
	l-77.069,77.069C221.159,483.978,218.601,484.994,215.999,484.994z"/>
<path d="M459.365,363.278c-2.571,0-5.141-0.985-7.096-2.954c-3.892-3.919-3.87-10.25,0.049-14.142l0.21-0.209
	c3.919-3.892,10.25-3.87,14.142,0.05c3.892,3.919,3.87,10.25-0.049,14.142l-0.21,0.209
	C464.461,362.31,461.912,363.278,459.365,363.278z"/>
<path d="M256.007,337.998c-2.041,0-4.082-0.623-5.823-1.87c-0.844-0.604-20.954-15.052-45.325-36.289
	c-4.164-3.628-4.598-9.945-0.969-14.108c3.628-4.164,9.944-4.599,14.109-0.97c16.026,13.966,30.398,25.081,38.041,30.826
	c37.15-27.652,115.965-94.893,115.965-136.174c0-36.067-28.253-65.41-62.98-65.41c-17.418,0-33.627,7.226-45.642,20.344
	c-1.894,2.068-4.57,3.246-7.375,3.246c-2.805,0-5.48-1.178-7.375-3.246c-12.015-13.119-28.224-20.344-45.642-20.344
	c-34.728,0-62.98,29.343-62.98,65.41c0,12.84,8.248,30.16,23.852,50.091c3.405,4.349,2.64,10.634-1.708,14.039
	c-4.349,3.402-10.635,2.64-14.039-1.709c-18.913-24.154-28.105-44.572-28.105-62.42c0-47.096,37.225-85.41,82.98-85.41
	c19.375,0,38.208,7.089,53.017,19.718c14.809-12.629,33.641-19.718,53.017-19.718c45.756,0,82.98,38.314,82.98,85.41
	c0,27.047-22.245,61.845-66.119,103.427c-31.633,29.98-62.745,52.35-64.054,53.287C260.088,337.375,258.047,337.998,256.007,337.998
	z"/>
<path d="M186.045,278.858c-2.541,0-5.081-0.962-7.031-2.889l-0.13-0.128c-3.927-3.884-3.963-10.215-0.08-14.143
	c3.882-3.927,10.214-3.963,14.142-0.08l-7.031,7.111l7.075-7.067c0.007,0.007,0.079,0.077,0.086,0.084
	c3.927,3.884,3.963,10.215,0.08,14.143C191.201,277.867,188.623,278.858,186.045,278.858z"/>
<path d="M345.513,189.414c-5.523,0-10-4.478-10-10c0-15.277-11.884-27.705-26.49-27.705c-5.523,0-10-4.478-10-10s4.477-10,10-10
	c25.634,0,46.49,21.399,46.49,47.705C355.513,184.936,351.036,189.414,345.513,189.414z"/>
<g>
</g>
<g>
</g>
<g>
</g>
<g>
</g>
<g>
</g>
<g>
</g>
<g>
</g>
<g>
</g>
<g>
</g>
<g>
</g>
<g>
</g>
<g>
</g>
<g>
</g>
<g>
</g>
<g>
</g>
</svg>
