<?xml version="1.0" encoding="iso-8859-1"?>
<!-- Generator: Adobe Illustrator 19.0.0, SVG Export Plug-In . SVG Version: 6.00 Build 0)  -->
<svg version="1.1" id="Capa_1" xmlns="http://www.w3.org/2000/svg" xmlns:xlink="http://www.w3.org/1999/xlink" x="0px" y="0px"
	 viewBox="0 0 512 512" style="enable-background:new 0 0 512 512;" xml:space="preserve">
<path style="fill:#EDF2FA;" d="M438,380.277V207.61c0-36.267-29.4-65.667-65.667-65.667H166.625
	c-36.267,0-65.667,29.4-65.667,65.667v172.667c0,36.267,29.4,65.667,65.667,65.667h13.282h56.051h136.375
	C408.6,445.944,438,416.544,438,380.277z"/>
<rect x="232.09" y="116.45" style="fill:#FFFFFF;" width="52" height="176"/>
<rect x="258.09" y="116.45" style="fill:#62CD4D;" width="26" height="176"/>
<path style="fill:#FFFFFF;" d="M403.106,57.004c2.699-17.091-3.098-34.846-16.27-47.076L285.063,132.935v144.571l16.095,6.313
	c6.428,2.521,13.107,4.292,19.905,5.325v-132.98L403.106,57.004z"/>
<path style="fill:#FEDA9B;" d="M501.976,180.994c0.006-0.138,0.007-0.278,0.011-0.417c-1.377,0.272-2.799,0.417-4.256,0.417H501.976
	z"/>
<path style="fill:#FFFFFF;" d="M483.57,136.845c0.013-0.313,0.024-0.627,0.024-0.944v-0.422c0-12.075-9.789-21.863-21.863-21.863
	h-36.413l-11.448,23.229H483.57z"/>
<path style="fill:#FEDA9B;" d="M453.391,290.211c12.075,0,21.863-9.789,21.863-21.863v-0.422c0-12.075-9.789-21.863-21.863-21.863
	h26.745c12.075,0,21.863-9.789,21.863-21.863v-0.422c0-12.075-9.789-21.863-21.863-21.863c11.758,0,21.345-9.283,21.839-20.92
	h-4.245c1.457,0,2.879-0.146,4.256-0.417c0.004-0.175,0.013-0.35,0.013-0.526v-0.422c0-12.075-9.789-21.863-21.863-21.863H461.73
	c11.758,0,21.345-9.283,21.839-20.92h-69.7l11.448-23.229H377.87l20.435-41.465c2.402-4.874,3.984-9.98,4.8-15.146l-82.042,99.16
	v132.98c4.593,0.698,9.238,1.068,13.904,1.068h118.424V290.211z"/>
<path d="M258.916,253.799c-5.523,0-10,4.478-10,10v0.108c0,5.522,4.477,10,10,10c5.523,0,10-4.478,10-10v-0.108
	C268.916,258.277,264.439,253.799,258.916,253.799z"/>
<path d="M512,179.796c0-16.583-12.765-30.233-28.983-31.659c1.496-3.684,2.328-7.706,2.328-11.921v-0.42
	c0-17.529-14.261-31.79-31.79-31.79h-59.882l13.939-29.418c10.418-21.987,6.929-48.141-8.889-66.628l-3.812-4.455
	c-1.919-2.243-4.734-3.536-7.681-3.499c-2.951,0.024-5.741,1.352-7.622,3.625L291.66,109.929c-1.834-2.127-4.542-3.478-7.57-3.478
	h-52c-5.523,0-10,4.478-10,10v176c0,5.522,4.477,10,10,10h52c5.373,0,9.743-4.24,9.978-9.555l16.37,6.42
	c1.163,0.456,2.401,0.69,3.651,0.69H428v80.271c0,30.695-24.972,55.667-55.667,55.667H145c-2.652,0-5.196,1.054-7.071,2.929
	L98.95,477.852v-31.908c0-5.522-4.477-10-10-10H75.667C44.972,435.944,20,410.972,20,380.277V207.611
	c0-30.695,24.972-55.667,55.667-55.667h56.089c5.523,0,10-4.478,10-10s-4.477-10-10-10H75.667C33.944,131.944,0,165.888,0,207.611
	v172.666C0,422,33.944,455.944,75.667,455.944h3.283v46.051c0,4.045,2.437,7.691,6.173,9.238c1.237,0.513,2.536,0.762,3.825,0.762
	c2.602,0,5.16-1.016,7.073-2.929l53.122-53.122h223.191c41.723,0,75.667-33.944,75.667-75.667v-80.271h5.555
	c17.529,0,31.79-14.261,31.79-31.79v-0.42c0-4.215-0.832-8.237-2.328-11.921C499.235,254.449,512,240.799,512,224.216v-0.42
	c0-8.428-3.303-16.095-8.675-21.79c5.372-5.695,8.675-13.362,8.675-21.79V179.796z M242.09,282.451v-156h32v156H242.09z
	 M492,224.216c0,6.501-5.289,11.79-11.79,11.79h-26.655h-40.133c-5.523,0-10,4.478-10,10s4.477,10,10,10h40.133
	c6.501,0,11.79,5.289,11.79,11.79v0.42c0,6.501-5.289,11.79-11.79,11.79H315.979l-21.889-8.584V138.367l93.062-112.478
	c7.517,11.963,8.55,27.127,2.386,40.135l-20.706,43.7c-1.468,3.099-1.246,6.732,0.587,9.629c1.833,2.897,5.022,4.653,8.45,4.653
	h75.686c6.501,0,11.79,5.289,11.79,11.79v0.42c0,6.501-5.289,11.79-11.79,11.79h-40.133c-5.523,0-10,4.478-10,10s4.477,10,10,10
	h40.133h26.655c6.501,0,11.79,5.289,11.79,11.79v0.42c0,6.501-5.289,11.79-11.79,11.79h-66.789c-5.523,0-10,4.478-10,10
	s4.477,10,10,10h66.789c6.501,0,11.79,5.289,11.79,11.79V224.216z"/>
<path d="M179,151.946c2.63,0,5.21-1.069,7.07-2.93s2.93-4.44,2.93-7.07s-1.07-5.21-2.93-7.069c-1.86-1.87-4.44-2.931-7.07-2.931
	s-5.21,1.061-7.07,2.931c-1.86,1.859-2.93,4.439-2.93,7.069s1.07,5.21,2.93,7.07C173.79,150.876,176.37,151.946,179,151.946z"/>
<path d="M195.582,293.944c0-5.522-4.477-10-10-10H77.929c-5.523,0-10,4.478-10,10s4.477,10,10,10h107.653
	C191.105,303.944,195.582,299.466,195.582,293.944z"/>
<path d="M131.755,367.944h158.821c5.523,0,10-4.478,10-10s-4.477-10-10-10H131.755c-5.523,0-10,4.478-10,10
	S126.232,367.944,131.755,367.944z"/>
<path d="M70.86,350.876c-1.86,1.859-2.93,4.439-2.93,7.069s1.07,5.21,2.93,7.07s4.44,2.93,7.07,2.93s5.21-1.069,7.07-2.93
	c1.86-1.86,2.93-4.44,2.93-7.07s-1.07-5.21-2.93-7.069c-1.86-1.86-4.44-2.931-7.07-2.931C75.3,347.946,72.72,349.016,70.86,350.876z
	"/>
<path d="M77.929,219.944c-5.523,0-10,4.478-10,10s4.477,10,10,10h107.653c5.523,0,10-4.478,10-10s-4.477-10-10-10H77.929z"/>
<g>
</g>
<g>
</g>
<g>
</g>
<g>
</g>
<g>
</g>
<g>
</g>
<g>
</g>
<g>
</g>
<g>
</g>
<g>
</g>
<g>
</g>
<g>
</g>
<g>
</g>
<g>
</g>
<g>
</g>
</svg>
