<?xml version="1.0" encoding="iso-8859-1"?>
<!-- Generator: Adobe Illustrator 19.0.0, SVG Export Plug-In . SVG Version: 6.00 Build 0)  -->
<svg version="1.1" id="Capa_1" xmlns="http://www.w3.org/2000/svg" xmlns:xlink="http://www.w3.org/1999/xlink" x="0px" y="0px"
	 viewBox="0 0 512 512" style="enable-background:new 0 0 512 512;" xml:space="preserve">
<path style="fill:#72D8FF;" d="M88.75,145.027v249.97h55.26v73.452c1.946,0.3,3.923,0.501,5.921,0.625l74.077-74.077h217.994
	c33.136,0,59.998-26.862,59.998-59.998V97.004c0-5.998-0.891-11.785-2.529-17.25H154.023
	C117.974,79.754,88.75,108.978,88.75,145.027z"/>
<path style="fill:#FFFFFF;" d="M120.854,251.595l-11.49-23.265l-15.866,32.168l-35.494,5.167l25.691,25.029l-6.054,35.353
	l27.769-14.609c-1.776-5.57-2.743-11.501-2.743-17.659C102.668,277.159,109.662,262.181,120.854,251.595z"/>
<path style="fill:#FFB954;" d="M141.137,326.03l-6.073-35.35l25.677-25.043l-35.496-5.148l-4.393-8.895
	c-11.192,10.586-18.186,25.564-18.186,42.186c0,6.159,0.967,12.089,2.743,17.659l3.974-2.091L141.137,326.03z"/>
<path style="fill:#FFFFFF;" d="M270.888,258.495L255.99,228.33l-15.866,32.168l-35.494,5.167l25.691,25.029l-6.054,35.353
	l25.698-13.519c-0.442-2.889-0.672-5.847-0.672-8.859C249.295,285.418,257.721,269.142,270.888,258.495z"/>
<path style="fill:#FFB954;" d="M287.764,326.03l-6.073-35.35l25.677-25.043l-35.496-5.148l-0.985-1.994
	c-13.167,10.647-21.593,26.922-21.593,45.174c0,3.012,0.23,5.971,0.672,8.859l6.045-3.18L287.764,326.03z"/>
<path style="fill:#FFFFFF;" d="M196.636,134.219l-13.959-28.265l-15.866,32.168l-35.494,5.167l25.691,25.029l-6.054,35.353
	l26.135-13.749c-0.722-3.658-1.109-7.437-1.109-11.306C175.982,160.803,184.009,144.872,196.636,134.219z"/>
<path style="fill:#FFB954;" d="M214.451,203.654l-6.073-35.35l25.677-25.043l-35.496-5.148l-1.924-3.895
	c-12.627,10.653-20.654,26.584-20.654,44.398c0,3.87,0.387,7.648,1.109,11.306l5.608-2.95L214.451,203.654z"/>
<path style="fill:#FFFFFF;" d="M341.416,130.482l-12.114-24.528l-15.866,32.168l-35.494,5.167l25.691,25.029l-6.054,35.353
	l27.295-14.36c-1.465-5.101-2.266-10.482-2.266-16.053C322.612,156.331,329.86,141.098,341.416,130.482z"/>
<path style="fill:#FFB954;" d="M361.077,203.654l-6.073-35.35l25.677-25.043l-35.496-5.148l-3.769-7.631
	c-11.557,10.615-18.806,25.847-18.806,42.777c0,5.572,0.801,10.953,2.266,16.053l4.448-2.34L361.077,203.654z"/>
<path style="fill:#FFFFFF;" d="M416.671,256.79l-14.056-28.46l-15.866,32.168l-35.494,5.167l25.691,25.029l-6.054,35.353
	l22.902-12.049c-0.603-3.354-0.935-6.802-0.935-10.33C392.862,284.413,402.241,267.356,416.671,256.79z"/>
<path style="fill:#FFB954;" d="M434.39,326.03l-6.073-35.35l25.677-25.043l-35.496-5.148l-1.827-3.7
	c-14.431,10.566-23.809,27.624-23.809,46.88c0,3.528,0.332,6.976,0.935,10.33l8.841-4.651L434.39,326.03z"/>
<path d="M365.02,334.139c1.742,1.265,3.804,1.908,5.876,1.908c1.593,0,3.191-0.38,4.655-1.15l27.09-14.252l27.098,14.237
	c3.37,1.771,7.452,1.475,10.531-0.764c3.079-2.239,4.62-6.03,3.976-9.782l-5.183-30.168l21.914-21.372
	c2.725-2.658,3.705-6.632,2.528-10.252s-4.308-6.257-8.075-6.804l-30.293-4.393l-13.555-27.446
	c-1.685-3.412-5.161-5.572-8.966-5.572h-0.002c-3.807,0.001-7.282,2.163-8.966,5.577l-13.54,27.453l-30.291,4.411
	c-3.767,0.548-6.895,3.188-8.07,6.808c-1.175,3.621-0.193,7.595,2.533,10.251l21.925,21.359l-5.167,30.172
	C360.396,328.112,361.94,331.903,365.02,334.139z M388.192,270.393c3.257-0.474,6.072-2.521,7.528-5.473l6.903-13.996l6.911,13.993
	c1.458,2.951,4.274,4.996,7.531,5.469l15.444,2.239l-11.172,10.896c-2.356,2.298-3.431,5.608-2.874,8.853l2.642,15.381
	l-13.816-7.259c-2.914-1.529-6.394-1.53-9.307,0.003l-13.812,7.266l2.634-15.383c0.556-3.244-0.521-6.554-2.878-8.851l-11.178-10.89
	L388.192,270.393z"/>
<path d="M308.804,255.741l-30.293-4.393l-13.555-27.446c-1.685-3.412-5.161-5.572-8.966-5.572h-0.002
	c-3.807,0.001-7.282,2.163-8.966,5.577l-13.54,27.453l-30.291,4.411c-3.767,0.548-6.896,3.188-8.07,6.808
	c-1.175,3.621-0.193,7.595,2.533,10.251l21.925,21.359l-5.167,30.172c-0.643,3.752,0.901,7.543,3.981,9.779
	c1.742,1.265,3.804,1.908,5.876,1.908c1.593,0,3.191-0.38,4.655-1.15l27.09-14.252l27.098,14.237
	c3.369,1.771,7.452,1.475,10.531-0.764c3.079-2.238,4.62-6.03,3.976-9.782l-5.183-30.168l21.914-21.372
	c2.725-2.658,3.705-6.632,2.528-10.252S312.571,256.287,308.804,255.741z M274.709,283.521c-2.356,2.298-3.431,5.608-2.874,8.853
	l2.642,15.381l-13.815-7.259c-2.914-1.529-6.394-1.53-9.307,0.003l-13.812,7.266l2.634-15.383c0.556-3.244-0.521-6.554-2.878-8.851
	l-11.178-10.89l15.444-2.249c3.257-0.474,6.072-2.521,7.528-5.473l6.903-13.996l6.911,13.993c1.458,2.951,4.274,4.996,7.531,5.469
	l15.444,2.239L274.709,283.521z"/>
<path d="M170.253,262.545c-1.177-3.62-4.308-6.257-8.075-6.804l-30.293-4.393l-13.555-27.446c-1.685-3.412-5.161-5.572-8.966-5.572
	h-0.002c-3.807,0.001-7.282,2.163-8.966,5.577l-13.54,27.453l-30.291,4.411c-3.767,0.548-6.896,3.188-8.07,6.808
	c-1.175,3.621-0.193,7.595,2.533,10.251l21.925,21.359l-5.167,30.172c-0.643,3.752,0.901,7.543,3.981,9.779
	c1.742,1.265,3.804,1.908,5.876,1.908c1.593,0,3.191-0.38,4.655-1.15l27.09-14.252l27.098,14.237
	c3.369,1.771,7.453,1.475,10.531-0.764c3.079-2.238,4.62-6.03,3.976-9.782l-5.183-30.168l21.914-21.372
	C170.45,270.138,171.43,266.165,170.253,262.545z M128.083,283.521c-2.356,2.298-3.431,5.608-2.874,8.853l2.642,15.381
	l-13.815-7.259c-2.913-1.529-6.394-1.53-9.307,0.003l-13.812,7.266l2.634-15.383c0.556-3.244-0.521-6.554-2.878-8.851l-11.178-10.89
	l15.444-2.249c3.257-0.474,6.072-2.521,7.528-5.473l6.903-13.996l6.911,13.993c1.458,2.951,4.274,4.996,7.531,5.469l15.444,2.239
	L128.083,283.521z"/>
<path d="M390.191,140.169c-1.177-3.62-4.308-6.257-8.074-6.804l-30.293-4.394l-13.555-27.446c-1.686-3.412-5.161-5.572-8.966-5.572
	c0,0-0.002,0-0.003,0c-3.806,0.001-7.282,2.163-8.966,5.577l-13.54,27.453l-30.291,4.41c-3.767,0.548-6.896,3.188-8.071,6.808
	c-1.175,3.621-0.193,7.594,2.533,10.25l21.925,21.36l-5.167,30.171c-0.643,3.752,0.901,7.543,3.981,9.78
	c1.742,1.265,3.804,1.908,5.876,1.908c1.592,0,3.191-0.38,4.655-1.15l27.09-14.252l27.098,14.237
	c3.369,1.771,7.452,1.475,10.531-0.764c3.079-2.238,4.62-6.03,3.976-9.781l-5.183-30.169l21.914-21.372
	C390.388,147.763,391.368,143.789,390.191,140.169z M348.022,161.145c-2.356,2.298-3.431,5.608-2.874,8.852l2.642,15.382
	l-13.816-7.259c-2.914-1.531-6.394-1.53-9.307,0.002l-13.812,7.266l2.634-15.383c0.556-3.244-0.521-6.554-2.878-8.851l-11.178-10.89
	l15.443-2.249c3.257-0.474,6.072-2.521,7.528-5.472l6.903-13.997l6.911,13.993c1.458,2.951,4.274,4.996,7.531,5.468l15.445,2.24
	L348.022,161.145z"/>
<path d="M209.8,212.507c3.369,1.771,7.453,1.475,10.531-0.764c3.079-2.238,4.62-6.03,3.976-9.781l-5.183-30.169l21.914-21.372
	c2.725-2.658,3.705-6.632,2.528-10.252s-4.308-6.257-8.074-6.804l-30.293-4.394l-13.555-27.446
	c-1.686-3.412-5.161-5.572-8.966-5.572c0,0-0.002,0-0.003,0c-3.806,0.001-7.282,2.163-8.966,5.577l-13.54,27.453l-30.291,4.41
	c-3.767,0.548-6.896,3.188-8.071,6.808c-1.175,3.621-0.193,7.594,2.533,10.25l21.925,21.36l-5.167,30.171
	c-0.643,3.752,0.901,7.543,3.981,9.78c1.742,1.265,3.804,1.908,5.876,1.908c1.592,0,3.191-0.38,4.655-1.15l27.09-14.252
	L209.8,212.507z M178.042,178.123l-13.812,7.266l2.634-15.383c0.556-3.244-0.521-6.554-2.878-8.851l-11.178-10.89l15.443-2.249
	c3.257-0.474,6.072-2.521,7.528-5.472l6.903-13.997l6.911,13.993c1.458,2.951,4.274,4.996,7.531,5.468l15.445,2.24l-11.172,10.896
	c-2.356,2.298-3.431,5.608-2.874,8.852l2.642,15.382l-13.816-7.259C184.435,176.589,180.955,176.59,178.042,178.123z"/>
<path d="M442.002,27.006H69.998C31.401,27.006,0,58.407,0,97.004v237.994c0,38.597,31.401,69.998,69.998,69.998h64.011v69.998
	c0,4.045,2.437,7.691,6.173,9.239c1.237,0.512,2.536,0.761,3.824,0.761c2.603,0,5.161-1.016,7.074-2.929l77.069-77.069h57.523
	c5.523,0,10-4.478,10-10c0-5.522-4.477-10-10-10h-61.665c-2.652,0-5.196,1.054-7.071,2.929l-62.927,62.927v-55.856
	c0-5.522-4.477-10-10-10h-74.01c-27.569,0-49.999-22.429-49.999-49.999V97.005c0-27.569,22.429-49.999,49.999-49.999h372.004
	c0.671,0,1.336,0.024,2,0.051v59.476c0,5.523,4.477,10,10,10c5.523,0,10-4.477,10-10V52.118
	c16.568,8.154,27.999,25.206,27.999,44.885v237.994c0,27.569-22.429,49.999-49.999,49.999h-70.998c-5.523,0-10,4.478-10,10
	c0,5.522,4.477,10,10,10h70.998c38.597,0,69.998-31.401,69.998-69.998V97.003C512,58.406,480.599,27.006,442.002,27.006z"/>
<path d="M329.315,384.997c-2.63,0-5.21,1.069-7.07,2.93c-1.86,1.86-2.93,4.44-2.93,7.07c0,2.63,1.07,5.21,2.93,7.069
	c1.86,1.86,4.43,2.931,7.07,2.931c2.63,0,5.21-1.07,7.07-2.931c1.86-1.859,2.93-4.439,2.93-7.069c0-2.63-1.07-5.21-2.93-7.07
	C334.525,386.067,331.945,384.997,329.315,384.997z"/>
<path d="M461.071,151.112c1.86-1.87,2.93-4.44,2.93-7.07c0-2.64-1.07-5.21-2.93-7.08c-1.86-1.86-4.44-2.92-7.07-2.92
	s-5.21,1.06-7.07,2.92c-1.86,1.87-2.93,4.44-2.93,7.08c0,2.63,1.07,5.2,2.93,7.07c1.86,1.86,4.44,2.92,7.07,2.92
	S459.211,152.972,461.071,151.112z"/>
<g>
</g>
<g>
</g>
<g>
</g>
<g>
</g>
<g>
</g>
<g>
</g>
<g>
</g>
<g>
</g>
<g>
</g>
<g>
</g>
<g>
</g>
<g>
</g>
<g>
</g>
<g>
</g>
<g>
</g>
</svg>
