<?xml version="1.0" encoding="iso-8859-1"?>
<!-- Generator: Adobe Illustrator 19.0.0, SVG Export Plug-In . SVG Version: 6.00 Build 0)  -->
<svg version="1.1" id="Capa_1" xmlns="http://www.w3.org/2000/svg" xmlns:xlink="http://www.w3.org/1999/xlink" x="0px" y="0px"
	 viewBox="0 0 512 512" style="enable-background:new 0 0 512 512;" xml:space="preserve">
<path style="fill:#FEDA9B;" d="M165.891,492.882c10.042,2.019,20.279,3.054,30.566,3.054h156.716V230.108h-28.002l-3.41,3.717
	v-2.954l13.475-27.814h-63.062l-3.41,3.717v-2.954l50.449-104.131c4.996-10.312,6.525-21.664,4.795-32.519L166.893,257.065
	l0.593,0.637l-1.595,1.927V492.882z"/>
<path style="fill:#FFFFFF;" d="M356.335,478.717c0-17.121,13.879-31,31-31h72.726c-2.795-14.249-15.347-25.002-30.415-25.002
	h-99.311c-17.121,0-31,13.879-31,31v11.221c0,17.121,13.879,31,31,31h26.585c-0.381-1.941-0.585-3.946-0.585-5.998V478.717z"/>
<path style="fill:#FEDA9B;" d="M460.646,464.936v-11.221c0-2.053-0.205-4.057-0.585-5.998h-72.726c-17.121,0-31,13.879-31,31v11.221
	c0,2.053,0.205,4.057,0.585,5.998h72.726C446.767,495.936,460.646,482.057,460.646,464.936z"/>
<path style="fill:#FFFFFF;" d="M356.335,405.497c0-17.121,13.879-31,31-31H496.67c-2.795-14.249-15.347-25.002-30.415-25.002
	h-135.92c-17.121,0-31,13.879-31,31v11.221c0,17.121,13.879,31,31,31h26.585c-0.381-1.941-0.585-3.946-0.585-5.998V405.497z"/>
<path style="fill:#FEDA9B;" d="M497.256,391.716v-11.221c0-2.053-0.205-4.057-0.585-5.998H387.335c-17.121,0-31,13.879-31,31v11.221
	c0,2.053,0.205,4.057,0.585,5.998h109.336C483.377,422.716,497.256,408.837,497.256,391.716z"/>
<path style="fill:#FFFFFF;" d="M356.335,332.277c0-17.121,13.879-31,31-31H496.67c-2.795-14.249-15.347-25.002-30.415-25.002
	h-135.92c-17.121,0-31,13.879-31,31v11.221c0,17.121,13.879,31,31,31h26.585c-0.381-1.941-0.585-3.946-0.585-5.998V332.277z"/>
<path style="fill:#FEDA9B;" d="M497.256,318.497v-11.221c0-2.053-0.205-4.057-0.585-5.998H387.335c-17.121,0-31,13.879-31,31v11.221
	c0,2.053,0.205,4.057,0.585,5.998h109.336C483.377,349.497,497.256,335.617,497.256,318.497z"/>
<path style="fill:#FFFFFF;" d="M356.335,259.058c0-17.121,13.879-31,31-31h72.726c-2.795-14.249-15.347-25.002-30.415-25.002
	h-99.311c-17.121,0-31,13.879-31,31v11.221c0,17.121,13.879,31,31,31h26.585c-0.381-1.941-0.585-3.946-0.585-5.998V259.058z"/>
<path style="fill:#FEDA9B;" d="M460.646,245.277v-11.221c0-2.053-0.205-4.057-0.585-5.998h-72.726c-17.121,0-31,13.879-31,31v11.221
	c0,2.053,0.205,4.057,0.585,5.998h72.726C446.767,276.277,460.646,262.398,460.646,245.277z"/>
<rect x="56.349" y="206.638" style="fill:#62CD4D;" width="56.657" height="289.296"/>
<path d="M61.882,433.868c-5.522,0-10,4.477-10,10v0.187c0,5.523,4.478,10,10,10s10-4.477,10-10v-0.187
	C71.882,438.345,67.404,433.868,61.882,433.868z"/>
<path d="M61.882,283.052c-5.522,0-10,4.477-10,10v105.308c0,5.523,4.478,10,10,10s10-4.477,10-10V293.052
	C71.882,287.529,67.404,283.052,61.882,283.052z"/>
<path d="M195.68,141.169c2.63,0,5.21-1.07,7.07-2.93c1.859-1.86,2.93-4.44,2.93-7.07c0-2.64-1.07-5.21-2.93-7.07
	c-1.86-1.86-4.44-2.93-7.07-2.93c-2.63,0-5.21,1.07-7.07,2.93c-1.859,1.86-2.93,4.44-2.93,7.07c0,2.63,1.07,5.21,2.93,7.07
	C190.47,140.098,193.05,141.169,195.68,141.169z"/>
<path d="M493.931,347.938c10.988-8.611,18.069-21.99,18.069-37c0-25.443-20.325-46.213-45.589-46.963
	c5.403-7.653,8.59-16.976,8.59-27.036c0-25.916-21.084-46.999-46.999-46.999h-71.448c-0.013,0-0.025-0.002-0.039-0.002h-69.913
	l41.609-85.889c11.231-23.182,7.667-50.808-9.079-70.381L298.511,9.565c-1.918-2.242-4.722-3.532-7.681-3.499
	c-2.952,0.024-5.741,1.351-7.623,3.625l-70.135,84.768c-3.521,4.255-2.925,10.559,1.33,14.079c4.258,3.522,10.561,2.925,14.08-1.33
	l62.558-75.61l12.896,15.072c11.578,13.533,14.043,32.633,6.278,48.659l-50.448,104.131c-0.658,1.359-1,2.85-1,4.36v21.776
	c0,36.752-29.901,66.654-66.654,66.654h-11c-5.522,0-10,4.477-10,10c0,5.523,4.478,10,10,10h11
	c47.781,0,86.654-38.872,86.654-86.654v-15.657h21.776c-5.388,7.647-8.566,16.958-8.566,27.002c0,15.01,7.082,28.389,18.069,37
	c-10.988,8.611-18.069,21.99-18.069,36.999c0,15.01,7.082,28.389,18.069,37c-10.988,8.611-18.069,21.99-18.069,36.999
	s7.082,28.389,18.069,37c-10.988,8.611-18.069,21.99-18.069,36.999c0,10.043,3.177,19.353,8.564,27H198.272
	c-18.39,0-36.393-3.404-53.512-10.118l-20.756-8.141V233.483l53.429-64.576c3.521-4.255,2.925-10.559-1.33-14.079
	c-4.256-3.522-10.56-2.925-14.08,1.33l-38.166,46.129c-0.788-4.736-4.893-8.35-9.853-8.35H10c-5.522,0-10,4.477-10,10v291.996
	c0,5.523,4.478,10,10,10h104.006c5.522,0,10-4.477,10-10v-6.773l13.453,5.276c19.455,7.63,39.916,11.499,60.814,11.499h140.7h17.542
	H428c25.916,0,46.999-21.084,46.999-46.999c0-10.059-3.187-19.383-8.59-27.036c25.265-0.75,45.589-21.521,45.589-46.963
	C512,369.927,504.918,356.548,493.931,347.938z M20,485.933V213.937h84.006v271.996H20z M311.975,236.94
	c0-14.888,12.111-27,26.999-27h89.028c14.888,0,27,12.112,27,27c0,14.888-12.112,27-27,27h-89.028
	C324.086,263.939,311.975,251.826,311.975,236.94z M311.975,310.939c0-14.888,12.111-27,26.999-27h89.028h36.999
	c14.888,0,27,12.112,27,27c0,14.888-12.112,27-27,27H338.973C324.086,337.938,311.975,325.825,311.975,310.939z M428.001,485.936
	h-71.486h-17.542c-14.888,0-26.999-12.112-26.999-27s12.111-27,26.999-27h89.028c14.888,0,27,12.112,27,27
	S442.889,485.936,428.001,485.936z M465.001,411.937h-36.999h-89.028c-14.888,0-26.999-12.112-26.999-27
	c0-14.888,12.111-27,26.999-27h126.027c14.888,0,27,12.112,27,27C492,399.825,479.888,411.937,465.001,411.937z"/>
<g>
</g>
<g>
</g>
<g>
</g>
<g>
</g>
<g>
</g>
<g>
</g>
<g>
</g>
<g>
</g>
<g>
</g>
<g>
</g>
<g>
</g>
<g>
</g>
<g>
</g>
<g>
</g>
<g>
</g>
</svg>
