<?xml version="1.0" encoding="iso-8859-1"?>
<!-- Generator: Adobe Illustrator 19.0.0, SVG Export Plug-In . SVG Version: 6.00 Build 0)  -->
<svg version="1.1" id="Capa_1" xmlns="http://www.w3.org/2000/svg" xmlns:xlink="http://www.w3.org/1999/xlink" x="0px" y="0px"
	 viewBox="0 0 512 512" style="enable-background:new 0 0 512 512;" xml:space="preserve">
<path style="fill:#FFB954;" d="M159.39,208.013c-42.461,11.522-73.692,50.328-73.692,96.435v132.697h147.384V304.449
	C233.082,258.341,201.85,219.535,159.39,208.013z"/>
<path style="fill:#FFFFFF;" d="M118.33,431.671l42.75-8.517c2.516-0.502,4.827-1.487,6.871-2.827
	c-5.368-3.519-8.824-9.565-8.824-16.304v-10.651h-51.948v10.651c0,9.304-6.571,17.313-15.696,19.131l-42.75,8.517
	c-18.787,3.743-32.975,19.239-35.05,38.283l-3.494,32.055h69.597l3.494-32.055C85.356,450.91,99.544,435.414,118.33,431.671z"/>
<path style="fill:#FF5D5D;" d="M217.58,431.672l-42.758-8.519c-2.516-0.502-4.827-1.487-6.871-2.827
	c-2.043,1.34-4.355,2.326-6.871,2.827l-42.75,8.517c-18.787,3.743-32.975,19.239-35.05,38.283l-3.494,32.055h176.349l-3.503-32.064
	C250.549,450.905,236.364,435.415,217.58,431.672z"/>
<path style="fill:#FFFFFF;" d="M132.33,412.184v-18.812h-25.151v10.651c0,9.304-6.571,17.313-15.696,19.131l-1.263,0.252
	l3.424,1.177c7.348,7.348,16.235,12.21,25.623,14.61C127.301,432.824,132.33,423,132.33,412.184z"/>
<path style="fill:#FFEFD5;" d="M172.677,424.582l1.622-1.557c-8.848-2.017-15.172-9.88-15.172-19.003v-10.651H132.33v18.812
	c0,10.816-5.029,20.641-13.063,27.01C137.761,443.921,158.2,439.058,172.677,424.582z"/>
<path style="fill:#62CD4D;" d="M501.813,191.067V75.255c0-36.044-29.219-65.262-65.262-65.262h-66.321
	c-36.044,0-65.261,29.219-65.261,65.262v115.813c0,33.034,24.55,60.318,56.397,64.647l-0.001,0.616h41.86h33.328
	C472.594,256.329,501.813,227.11,501.813,191.067z"/>
<path style="fill:#FFFFFF;" d="M115.925,342.428V301.47c-7.304,2.084-14.917,3.194-22.652,3.194H69.212v43.867
	c0.766,10.021,5.653,18.943,13.052,23.829l38.476,21.996c7.726,5.102,17.119,5.102,24.845,0l5.974-3.425l-13.202-7.547
	C125.639,374.985,117.241,359.651,115.925,342.428z"/>
<path style="fill:#FFEFD5;" d="M197.111,348.532v-43.867l-44.689-24.948l0,0c-10.148,10.413-22.767,17.837-36.497,21.755v40.958
	c1.317,17.223,9.715,32.557,22.432,40.956l13.202,7.547l32.385-18.569C191.343,367.474,196.344,358.552,197.111,348.532z"/>
<path d="M262.572,468.87c-1.581-14.499-8.776-27.237-19.499-35.956V304.448c0-60.606-49.307-109.913-109.913-109.913
	S23.247,243.842,23.247,304.448v128.476c-10.714,8.716-17.906,21.447-19.489,35.936l-3.503,32.064
	c-0.309,2.822,0.599,5.642,2.494,7.756c1.896,2.113,4.6,3.321,7.439,3.321h245.946c2.839,0,5.544-1.207,7.438-3.32
	c1.896-2.112,2.803-4.933,2.495-7.755L262.572,468.87z M43.231,304.448c0-49.587,40.342-89.929,89.929-89.929
	s89.929,40.342,89.929,89.929V422.71c-1.167-0.315-2.348-0.601-3.548-0.84l-42.75-8.517c-4.437-0.883-7.656-4.808-7.656-9.332
	v-10.651c0-0.329-0.018-0.652-0.049-0.973l19.829-11.37c0.182-0.104,0.361-0.214,0.536-0.33
	c10.038-6.629,16.627-18.37,17.623-31.406c0.02-0.253,0.029-0.508,0.029-0.761v-43.867c0-3.621-1.959-6.96-5.121-8.724
	l-44.689-24.948c-3.945-2.201-8.874-1.484-12.027,1.751c-13.582,13.937-32.533,21.93-51.994,21.93H69.212
	c-5.519,0-9.992,4.474-9.992,9.992v43.867c0,0.255,0.01,0.509,0.029,0.762c1,13.087,7.546,24.827,17.509,31.405
	c0.179,0.118,0.361,0.23,0.547,0.337l19.945,11.402c-0.029,0.308-0.047,0.618-0.047,0.933v10.651c0,4.523-3.219,8.448-7.656,9.332
	l-42.758,8.519c-1.203,0.24-2.386,0.527-3.557,0.842C43.231,422.714,43.231,304.448,43.231,304.448z M140.613,385.688
	c-0.183,0.104-0.361,0.215-0.537,0.33c-4.396,2.904-9.437,2.904-13.833,0c-0.179-0.118-0.361-0.23-0.548-0.337l-38.16-21.815
	c-4.57-3.145-7.735-9.127-8.333-15.749v-33.462h14.069c22.226,0,43.931-8.176,60.664-22.651l33.182,18.524v37.588
	c-0.597,6.578-3.807,12.561-8.451,15.751L140.613,385.688z M117.187,404.022v-0.144c5.018,2.854,10.494,4.294,15.974,4.294
	c5.486,0,10.967-1.444,15.989-4.304v0.153c0,7.698,3.012,14.831,8,20.158c-14.66,8.991-33.306,8.993-47.968,0.006
	C114.172,418.858,117.187,411.722,117.187,404.022z M21.331,492.016l2.293-20.986c1.615-14.774,12.492-26.653,27.069-29.557
	l38.213-7.614c12.517,11.366,28.385,17.052,44.255,17.052s31.74-5.688,44.257-17.055l38.218,7.615
	c14.58,2.905,25.459,14.786,27.07,29.566l2.287,20.979L21.331,492.016L21.331,492.016z"/>
<path d="M289.684,71.348h151.53c5.519,0,9.992-4.474,9.992-9.992s-4.473-9.992-9.992-9.992h-151.53
	c-5.519,0-9.992,4.474-9.992,9.992S284.165,71.348,289.684,71.348z"/>
<path d="M289.684,119.31h151.53c5.519,0,9.992-4.474,9.992-9.992c0-5.518-4.473-9.992-9.992-9.992h-151.53
	c-5.519,0-9.992,4.474-9.992,9.992C279.691,114.835,284.165,119.31,289.684,119.31z"/>
<path d="M289.684,167.272h151.53c5.519,0,9.992-4.474,9.992-9.992c0-5.518-4.473-9.992-9.992-9.992h-151.53
	c-5.519,0-9.992,4.474-9.992,9.992C279.691,162.798,284.165,167.272,289.684,167.272z"/>
<path d="M441.214,195.25h-80.77c-5.519,0-9.992,4.474-9.992,9.992c0,5.518,4.473,9.992,9.992,9.992h80.77
	c5.519,0,9.992-4.474,9.992-9.992C451.206,199.724,446.733,195.25,441.214,195.25z"/>
<path d="M315.714,205.242c0,5.518,4.473,9.992,9.992,9.992h0.099c5.519,0,9.943-4.474,9.943-9.992c0-5.518-4.522-9.992-10.041-9.992
	C320.188,195.25,315.714,199.724,315.714,205.242z"/>
<path d="M436.551,0H295.289c-41.495,0-75.254,33.758-75.254,75.254v14.579c0,5.518,4.473,9.992,9.992,9.992s9.992-4.474,9.992-9.992
	V75.254c0-30.476,24.793-55.269,55.269-55.269h141.262c30.476,0,55.269,24.793,55.269,55.269v115.813
	c0,30.476-24.793,55.269-55.269,55.269H328.283c-2.895,0-5.648,1.255-7.545,3.44l-24.371,28.069l0.049-22.111
	c0.011-5.008-3.685-9.25-8.646-9.924c-27.223-3.699-47.75-27.235-47.75-54.745v-13.303c0-5.518-4.473-9.992-9.992-9.992
	s-9.992,4.474-9.992,9.992v13.303c0,34.481,23.691,64.377,56.379,72.844l-0.09,40.731c-0.009,4.175,2.577,7.914,6.485,9.38
	c1.144,0.429,2.33,0.636,3.505,0.635c2.84,0,5.612-1.212,7.547-3.44l38.979-44.895h103.71c41.495,0,75.254-33.758,75.254-75.254
	V75.254C511.805,33.758,478.046,0,436.551,0z"/>
<path d="M230.028,143.291c2.628,0,5.206-1.069,7.064-2.929c1.859-1.858,2.928-4.435,2.928-7.063s-1.069-5.206-2.928-7.064
	s-4.437-2.928-7.064-2.928s-5.206,1.068-7.064,2.928c-1.859,1.859-2.928,4.437-2.928,7.064s1.069,5.206,2.928,7.063
	C224.822,142.222,227.399,143.291,230.028,143.291z"/>
<g>
</g>
<g>
</g>
<g>
</g>
<g>
</g>
<g>
</g>
<g>
</g>
<g>
</g>
<g>
</g>
<g>
</g>
<g>
</g>
<g>
</g>
<g>
</g>
<g>
</g>
<g>
</g>
<g>
</g>
</svg>
