<?xml version="1.0" encoding="iso-8859-1"?>
<!-- Generator: Adobe Illustrator 19.0.0, SVG Export Plug-In . SVG Version: 6.00 Build 0)  -->
<svg version="1.1" id="Capa_1" xmlns="http://www.w3.org/2000/svg" xmlns:xlink="http://www.w3.org/1999/xlink" x="0px" y="0px"
	 viewBox="0 0 512 512" style="enable-background:new 0 0 512 512;" xml:space="preserve">
<path style="fill:#FF5D5D;" d="M186.099,16.02C126.285,33.832,82.665,89.235,82.665,154.837c0,54.508,30.117,101.973,74.613,126.689
	c18.336-1.508,35.642-6.642,51.194-14.7L265.105,282l-13.487-50.334c18.988-23.385,30.374-53.193,30.374-85.663
	C281.993,84.855,241.633,33.135,186.099,16.02z"/>
<path style="fill:#FFEFD5;" d="M375.443,372.248l27.172,15.581l27.254-15.581c7.405-4.89,12.295-13.819,13.062-23.847v-64.337
	h-80.665v64.337C363.034,358.43,368.039,367.358,375.443,372.248z"/>
<path style="fill:#FFB954;" d="M454.668,275.326l0.017-25.517l-0.022,0.102c-0.471-16.597-14.063-29.909-30.773-29.909h-49.161
	h-24.232v33.978c0,22.863,18.535,41.398,41.398,41.398h43.126C449.809,295.378,454.668,288.595,454.668,275.326z"/>
<path style="fill:#6A80FF;" d="M463.418,431.606l-42.791-8.526c-4.81-0.958-8.898-3.646-11.702-7.327
	c-2.804,3.681-6.892,6.369-11.702,7.327l-42.783,8.524c-18.802,3.746-33,19.253-35.077,38.312l-3.497,32.079h186.135l-3.506-32.088
	C496.412,450.853,482.215,435.351,463.418,431.606z"/>
<path style="fill:#FFFFFF;" d="M360.842,433.656l1.698-0.338c12.269-2.444,21.103-13.213,21.103-25.722v-14.321h-30.71v10.659
	c0,9.311-6.576,17.327-15.708,19.146l-1.264,0.252l3.427,1.178c8.918,8.918,20.098,14.191,31.693,15.826
	c-1.942-1.588-3.824-3.285-5.635-5.097L360.842,433.656z"/>
<path style="fill:#FFEFD5;" d="M418.479,424.509l1.623-1.558c-8.855-2.019-15.184-9.888-15.184-19.018v-10.659h-21.277v14.321
	c0,12.51-8.835,23.278-21.103,25.722l-1.698,0.338l4.604,1.582c1.812,1.811,3.693,3.509,5.635,5.097
	C387.883,442.704,405.557,437.433,418.479,424.509z"/>
<path d="M511.941,500.908l-3.506-32.088c-2.568-23.504-19.875-42.401-43.063-47.022l-42.791-8.526
	c-4.439-0.885-7.662-4.812-7.662-9.339v-10.659c0-0.316-0.019-0.627-0.047-0.935l19.96-11.412c0.186-0.106,0.369-0.219,0.547-0.337
	c9.971-6.583,16.521-18.333,17.522-31.429c0.02-0.253,0.029-0.508,0.029-0.762v-47.375c6.749-4.154,11.735-11.89,11.737-25.693
	l0.018-25.517c0-0.388-0.021-0.77-0.064-1.147c-1.11-21.76-18.822-38.666-40.732-38.666h-96.476c-4.603,0-8.807-2.387-11.523-4.39
	c-4.366-3.217-10.079-3.7-14.911-1.259c-4.811,2.431-7.799,7.292-7.799,12.688v36.939c0,12.401,4.414,23.789,11.754,32.677V348.4
	c0,0.254,0.01,0.509,0.029,0.763c0.998,13.047,7.591,24.795,17.637,31.429c0.175,0.116,0.354,0.226,0.536,0.33l19.844,11.379
	c-0.031,0.321-0.049,0.645-0.049,0.974v10.659c0,4.527-3.222,8.454-7.662,9.339l-42.783,8.524
	c-23.195,4.622-40.501,23.523-43.064,47.035l-3.497,32.079c-0.308,2.824,0.6,5.646,2.497,7.76c1.897,2.114,4.604,3.323,7.444,3.323
	H502c2.841,0,5.548-1.208,7.445-3.324C511.342,506.555,512.25,503.733,511.941,500.908z M362.931,403.78
	c5.026,2.862,10.512,4.306,16.002,4.306c5.485,0,10.965-1.441,15.987-4.297v0.144c0,7.706,3.017,14.848,8.011,20.179
	c-14.673,8.994-33.333,8.992-48.005-0.006c4.991-5.331,8.006-12.47,8.006-20.172V403.78z M313.181,226.987
	c4.671,1.988,9.478,3.015,14.233,3.015h96.476c11.33,0,20.457,8.87,20.778,20.193c0.004,0.127,0.01,0.254,0.018,0.38l-0.017,24.745
	c0,0.002,0,0.004,0,0.007c0,5.812-1.163,7.712-1.663,8.259c-1.041,1.14-3.951,1.793-7.985,1.793H344.58
	c-17.313,0-31.398-14.086-31.398-31.398v-26.993H313.181z M324.935,347.986v-46.519c6.056,2.515,12.69,3.91,19.645,3.91h88.352
	v42.609c-0.598,6.626-3.766,12.612-8.34,15.76l-38.19,21.832c-0.187,0.106-0.369,0.219-0.548,0.337
	c-4.399,2.904-9.444,2.904-13.843,0c-0.175-0.116-0.354-0.226-0.537-0.331l-38.082-21.835
	C328.745,360.558,325.533,354.57,324.935,347.986z M267.015,491.995L269.304,471c1.613-14.791,12.5-26.681,27.091-29.588
	l38.246-7.62c12.528,11.377,28.409,17.069,44.292,17.069c15.882,0,31.762-5.691,44.289-17.066l38.241,7.619
	c14.588,2.907,25.474,14.795,27.089,29.581l2.295,21.001H267.015V491.995z"/>
<path d="M188.328,86.663c5.523,0,10-4.477,10-10c0-5.523-4.477-10-10-10h-70.665c-5.523,0-10,4.477-10,10c0,5.523,4.477,10,10,10
	H188.328z"/>
<path d="M62.831,124.661c0,5.523,4.477,10,10,10h151.646c5.523,0,10-4.477,10-10c0-5.523-4.477-10-10-10H72.831
	C67.308,114.662,62.831,119.139,62.831,124.661z"/>
<path d="M234.477,172.66c0-5.523-4.477-10-10-10H72.831c-5.523,0-10,4.477-10,10s4.477,10,10,10h151.646
	C230,182.66,234.477,178.183,234.477,172.66z"/>
<path d="M113.247,210.66c-5.523,0-10,4.477-10,10s4.477,10,10,10h40.416c5.523,0,10-4.477,10-10s-4.477-10-10-10H113.247z"/>
<path d="M188.328,210.659c-5.523,0-9.95,4.477-9.95,10s4.526,10,10.049,10c5.523,0,10-4.477,10-10s-4.477-10-10-10H188.328z"/>
<path d="M265.104,292c2.617,0,5.171-1.029,7.072-2.929c2.526-2.526,3.513-6.208,2.588-9.66l-12.196-45.515
	c19.009-25.206,29.424-56.216,29.424-87.893c0-24.66-6.267-49.039-18.122-70.499c-2.67-4.834-8.754-6.586-13.589-3.918
	c-4.834,2.671-6.588,8.754-3.918,13.589c10.225,18.507,15.629,39.541,15.629,60.828c0,28.83-9.993,57.014-28.138,79.359
	c-2.021,2.489-2.726,5.795-1.896,8.892l9.004,33.604l-39.903-10.692c-2.41-0.646-4.974-0.368-7.189,0.78
	c-17.998,9.326-37.469,14.054-57.875,14.054c-69.475,0-125.997-56.522-125.997-125.997S76.521,20.007,145.996,20.007
	c20.096,0,39.299,4.588,57.074,13.635c4.921,2.505,10.943,0.546,13.448-4.375c2.506-4.922,0.547-10.942-4.375-13.448
	C191.531,5.327,169.277,0.008,145.996,0.008C65.493,0.008,0,65.501,0,146.004S65.493,292,145.996,292
	c21.986,0,43.873-5.015,63.554-14.533l52.966,14.192C263.372,291.888,264.241,292,265.104,292z"/>
<path d="M234.188,56.016c1.941,1.846,4.435,2.764,6.923,2.764c2.643,0,5.279-1.036,7.239-3.097
	c3.805-4.002,3.67-10.309-0.333-14.114l-7.027,7.114l7.011-7.13c-3.938-3.872-10.269-3.819-14.142,0.119
	c-3.872,3.938-3.819,10.269,0.119,14.142L234.188,56.016z"/>
<g>
</g>
<g>
</g>
<g>
</g>
<g>
</g>
<g>
</g>
<g>
</g>
<g>
</g>
<g>
</g>
<g>
</g>
<g>
</g>
<g>
</g>
<g>
</g>
<g>
</g>
<g>
</g>
<g>
</g>
</svg>
