<?xml version="1.0" encoding="iso-8859-1"?>
<!-- Generator: Adobe Illustrator 19.0.0, SVG Export Plug-In . SVG Version: 6.00 Build 0)  -->
<svg version="1.1" id="Capa_1" xmlns="http://www.w3.org/2000/svg" xmlns:xlink="http://www.w3.org/1999/xlink" x="0px" y="0px"
	 viewBox="0 0 512 512" style="enable-background:new 0 0 512 512;" xml:space="preserve">
<rect x="251" y="364" style="fill:#D8D8E4;" width="49" height="90"/>
<path style="fill:#B3B6C3;" d="M326.176,454h-72.352C230.726,454,212,472.725,212,495.824V502h156v-6.176
	C368,472.725,349.274,454,326.176,454z"/>
<path style="fill:#C9F3FF;" d="M467.523,39.667H137.535c-19.041,0-34.477,15.436-34.477,34.477v255.38
	c0,19.041,15.436,34.477,34.477,34.477h329.988C486.564,364,502,348.564,502,329.523V74.143
	C502,55.102,486.564,39.667,467.523,39.667z"/>
<path style="fill:#4DBAF6;" d="M502,324v-20H100.333v20c0,22.091,17.909,40,40,40H462C484.091,364,502,346.091,502,324z"/>
<path style="fill:#FFFFFF;" d="M137.25,157c0-11.132,6.496-20.745,15.904-25.258c-3.661-1.757-7.763-2.742-12.096-2.742
	c-15.464,0-28,12.536-28,28s12.536,28,28,28c4.333,0,8.435-0.985,12.096-2.742C143.747,177.745,137.25,168.132,137.25,157z"/>
<path style="fill:#FF5D5D;" d="M169.059,157c0-11.132-6.497-20.745-15.904-25.258c-9.408,4.513-15.904,14.127-15.904,25.258
	s6.496,20.745,15.904,25.258C162.562,177.745,169.059,168.132,169.059,157z"/>
<path style="fill:#FFFFFF;" d="M252.192,157c0-11.132,6.497-20.745,15.904-25.258C264.435,129.985,260.333,129,256,129
	c-15.464,0-28,12.536-28,28s12.536,28,28,28c4.333,0,8.435-0.985,12.096-2.742C258.688,177.745,252.192,168.132,252.192,157z"/>
<path style="fill:#FF5D5D;" d="M284,157c0-11.132-6.496-20.745-15.904-25.258c-9.408,4.513-15.904,14.127-15.904,25.258
	s6.497,20.745,15.904,25.258C277.504,177.745,284,168.132,284,157z"/>
<path style="fill:#FFFFFF;" d="M367.134,157c0-11.132,6.496-20.745,15.904-25.258c-3.662-1.757-7.764-2.742-12.096-2.742
	c-15.464,0-28,12.536-28,28s12.536,28,28,28c4.333,0,8.435-0.985,12.096-2.742C373.63,177.745,367.134,168.132,367.134,157z"/>
<path style="fill:#FF5D5D;" d="M398.941,157c0-11.132-6.496-20.745-15.904-25.258c-9.408,4.513-15.904,14.127-15.904,25.258
	s6.496,20.745,15.904,25.258C392.445,177.745,398.941,168.132,398.941,157z"/>
<path d="M137.442,294h-0.384c-5.522,0-10,4.477-10,10s4.478,10,10,10h0.384c5.522,0,10-4.477,10-10S142.965,294,137.442,294z"/>
<path d="M255.952,323c-5.522,0-10,4.477-10,10s4.478,10,10,10h0.096c5.522,0,9.952-4.477,9.952-10S261.475,323,255.952,323z"/>
<path d="M462,0H50C22.43,0,0,22.43,0,50v274c0,27.57,22.43,50,50,50h152v70h-16.176C157.248,444,134,467.248,134,495.824V502
	c0,5.523,4.478,10,10,10h224c5.522,0,10-4.477,10-10v-6.176C378,467.248,354.752,444,326.176,444H310v-70h152
	c27.57,0,50-22.43,50-50V50C512,22.43,489.57,0,462,0z M357.771,492H154.229c1.895-15.752,15.342-28,31.596-28h140.352
	C342.43,464,355.877,476.248,357.771,492z M290,444h-68v-70h68V444z M462,354H50c-16.542,0-30-13.458-30-30v-10h79.507
	c5.522,0,10-4.477,10-10s-4.478-10-10-10H20V50c0-16.542,13.458-30,30-30h412c16.542,0,30,13.458,30,30v244h-28v-71.495
	c0-5.523-4.478-10-10-10s-10,4.477-10,10V294H172.333c-5.522,0-10,4.477-10,10s4.478,10,10,10H492v10
	C492,340.542,478.542,354,462,354z"/>
<path d="M179.059,157c0-20.953-17.047-38-38-38s-38,17.047-38,38s17.047,38,38,38S179.059,177.953,179.059,157z M123.059,157
	c0-9.925,8.075-18,18-18s18,8.075,18,18s-8.075,18-18,18S123.059,166.925,123.059,157z"/>
<path d="M256,195c20.953,0,38-17.047,38-38s-17.047-38-38-38s-38,17.047-38,38S235.047,195,256,195z M256,139
	c9.925,0,18,8.075,18,18s-8.075,18-18,18s-18-8.075-18-18S246.075,139,256,139z"/>
<path d="M370.941,195c20.953,0,38-17.047,38-38s-17.047-38-38-38s-38,17.047-38,38S349.988,195,370.941,195z M370.941,139
	c9.925,0,18,8.075,18,18s-8.075,18-18,18s-18-8.075-18-18S361.017,139,370.941,139z"/>
<path d="M454,195c2.63,0,5.21-1.07,7.069-2.93c1.86-1.86,2.931-4.44,2.931-7.07s-1.07-5.21-2.931-7.07
	C459.21,176.07,456.63,175,454,175s-5.21,1.07-7.07,2.93c-1.86,1.86-2.93,4.44-2.93,7.07s1.069,5.21,2.93,7.07S451.37,195,454,195z"
	/>
<g>
</g>
<g>
</g>
<g>
</g>
<g>
</g>
<g>
</g>
<g>
</g>
<g>
</g>
<g>
</g>
<g>
</g>
<g>
</g>
<g>
</g>
<g>
</g>
<g>
</g>
<g>
</g>
<g>
</g>
</svg>
